<mxfile host="app.diagrams.net" modified="2024-03-10T17:41:59.344Z" agent="Mozilla/5.0 (X11; Linux x86_64; rv:109.0) Gecko/20100101 Firefox/115.0" etag="1IqfhUZQcjtPVLqmEIvM" version="23.1.8" type="device">
  <diagram name="PÃ¡gina-1" id="THVHWNMapMxBwlFBqmSL">
    <mxGraphModel dx="1434" dy="695" grid="1" gridSize="10" guides="1" tooltips="1" connect="1" arrows="1" fold="1" page="1" pageScale="1" pageWidth="827" pageHeight="1169" math="0" shadow="0">
      <root>
        <mxCell id="0" />
        <mxCell id="1" parent="0" />
        <mxCell id="iHH6gqKq-wT_3guFl9Im-1" value="" style="shape=table;startSize=0;container=1;collapsible=0;childLayout=tableLayout;" vertex="1" parent="1">
          <mxGeometry x="120" y="160" width="240" height="40" as="geometry" />
        </mxCell>
        <mxCell id="iHH6gqKq-wT_3guFl9Im-2" value="" style="shape=tableRow;horizontal=0;startSize=0;swimlaneHead=0;swimlaneBody=0;strokeColor=inherit;top=0;left=0;bottom=0;right=0;collapsible=0;dropTarget=0;fillColor=none;points=[[0,0.5],[1,0.5]];portConstraint=eastwest;" vertex="1" parent="iHH6gqKq-wT_3guFl9Im-1">
          <mxGeometry width="240" height="40" as="geometry" />
        </mxCell>
        <mxCell id="iHH6gqKq-wT_3guFl9Im-3" value="&lt;u&gt;code&lt;/u&gt;" style="shape=partialRectangle;html=1;whiteSpace=wrap;connectable=0;strokeColor=inherit;overflow=hidden;fillColor=none;top=0;left=0;bottom=0;right=0;pointerEvents=1;" vertex="1" parent="iHH6gqKq-wT_3guFl9Im-2">
          <mxGeometry width="60" height="40" as="geometry">
            <mxRectangle width="60" height="40" as="alternateBounds" />
          </mxGeometry>
        </mxCell>
        <mxCell id="iHH6gqKq-wT_3guFl9Im-4" value="city" style="shape=partialRectangle;html=1;whiteSpace=wrap;connectable=0;strokeColor=inherit;overflow=hidden;fillColor=none;top=0;left=0;bottom=0;right=0;pointerEvents=1;" vertex="1" parent="iHH6gqKq-wT_3guFl9Im-2">
          <mxGeometry x="60" width="60" height="40" as="geometry">
            <mxRectangle width="60" height="40" as="alternateBounds" />
          </mxGeometry>
        </mxCell>
        <mxCell id="iHH6gqKq-wT_3guFl9Im-5" value="state" style="shape=partialRectangle;html=1;whiteSpace=wrap;connectable=0;strokeColor=inherit;overflow=hidden;fillColor=none;top=0;left=0;bottom=0;right=0;pointerEvents=1;" vertex="1" parent="iHH6gqKq-wT_3guFl9Im-2">
          <mxGeometry x="120" width="60" height="40" as="geometry">
            <mxRectangle width="60" height="40" as="alternateBounds" />
          </mxGeometry>
        </mxCell>
        <mxCell id="iHH6gqKq-wT_3guFl9Im-6" value="name" style="shape=partialRectangle;html=1;whiteSpace=wrap;connectable=0;strokeColor=inherit;overflow=hidden;fillColor=none;top=0;left=0;bottom=0;right=0;pointerEvents=1;" vertex="1" parent="iHH6gqKq-wT_3guFl9Im-2">
          <mxGeometry x="180" width="60" height="40" as="geometry">
            <mxRectangle width="60" height="40" as="alternateBounds" />
          </mxGeometry>
        </mxCell>
        <mxCell id="iHH6gqKq-wT_3guFl9Im-7" value="airport" style="rounded=0;whiteSpace=wrap;html=1;" vertex="1" parent="1">
          <mxGeometry x="120" y="130" width="60" height="30" as="geometry" />
        </mxCell>
        <mxCell id="iHH6gqKq-wT_3guFl9Im-8" value="" style="shape=table;startSize=0;container=1;collapsible=0;childLayout=tableLayout;" vertex="1" parent="1">
          <mxGeometry x="520" y="160" width="200" height="40" as="geometry" />
        </mxCell>
        <mxCell id="iHH6gqKq-wT_3guFl9Im-9" value="" style="shape=tableRow;horizontal=0;startSize=0;swimlaneHead=0;swimlaneBody=0;strokeColor=inherit;top=0;left=0;bottom=0;right=0;collapsible=0;dropTarget=0;fillColor=none;points=[[0,0.5],[1,0.5]];portConstraint=eastwest;" vertex="1" parent="iHH6gqKq-wT_3guFl9Im-8">
          <mxGeometry width="200" height="40" as="geometry" />
        </mxCell>
        <mxCell id="iHH6gqKq-wT_3guFl9Im-10" value="&lt;u&gt;number&lt;/u&gt;" style="shape=partialRectangle;html=1;whiteSpace=wrap;connectable=0;strokeColor=inherit;overflow=hidden;fillColor=none;top=0;left=0;bottom=0;right=0;pointerEvents=1;" vertex="1" parent="iHH6gqKq-wT_3guFl9Im-9">
          <mxGeometry width="60" height="40" as="geometry">
            <mxRectangle width="60" height="40" as="alternateBounds" />
          </mxGeometry>
        </mxCell>
        <mxCell id="iHH6gqKq-wT_3guFl9Im-11" value="airline" style="shape=partialRectangle;html=1;whiteSpace=wrap;connectable=0;strokeColor=inherit;overflow=hidden;fillColor=none;top=0;left=0;bottom=0;right=0;pointerEvents=1;" vertex="1" parent="iHH6gqKq-wT_3guFl9Im-9">
          <mxGeometry x="60" width="60" height="40" as="geometry">
            <mxRectangle width="60" height="40" as="alternateBounds" />
          </mxGeometry>
        </mxCell>
        <mxCell id="iHH6gqKq-wT_3guFl9Im-12" value="weekdays" style="shape=partialRectangle;html=1;whiteSpace=wrap;connectable=0;strokeColor=inherit;overflow=hidden;fillColor=none;top=0;left=0;bottom=0;right=0;pointerEvents=1;" vertex="1" parent="iHH6gqKq-wT_3guFl9Im-9">
          <mxGeometry x="120" width="80" height="40" as="geometry">
            <mxRectangle width="80" height="40" as="alternateBounds" />
          </mxGeometry>
        </mxCell>
        <mxCell id="iHH6gqKq-wT_3guFl9Im-14" value="flight" style="rounded=0;whiteSpace=wrap;html=1;" vertex="1" parent="1">
          <mxGeometry x="520" y="130" width="60" height="30" as="geometry" />
        </mxCell>
        <mxCell id="iHH6gqKq-wT_3guFl9Im-15" value="" style="shape=table;startSize=0;container=1;collapsible=0;childLayout=tableLayout;" vertex="1" parent="1">
          <mxGeometry x="40" y="360" width="600" height="40" as="geometry" />
        </mxCell>
        <mxCell id="iHH6gqKq-wT_3guFl9Im-16" value="" style="shape=tableRow;horizontal=0;startSize=0;swimlaneHead=0;swimlaneBody=0;strokeColor=inherit;top=0;left=0;bottom=0;right=0;collapsible=0;dropTarget=0;fillColor=none;points=[[0,0.5],[1,0.5]];portConstraint=eastwest;" vertex="1" parent="iHH6gqKq-wT_3guFl9Im-15">
          <mxGeometry width="600" height="40" as="geometry" />
        </mxCell>
        <mxCell id="iHH6gqKq-wT_3guFl9Im-17" value="&lt;u&gt;flight_Number&lt;/u&gt;" style="shape=partialRectangle;html=1;whiteSpace=wrap;connectable=0;strokeColor=inherit;overflow=hidden;fillColor=none;top=0;left=0;bottom=0;right=0;pointerEvents=1;" vertex="1" parent="iHH6gqKq-wT_3guFl9Im-16">
          <mxGeometry width="100" height="40" as="geometry">
            <mxRectangle width="100" height="40" as="alternateBounds" />
          </mxGeometry>
        </mxCell>
        <mxCell id="iHH6gqKq-wT_3guFl9Im-18" value="&lt;u&gt;LegNo&lt;/u&gt;" style="shape=partialRectangle;html=1;whiteSpace=wrap;connectable=0;strokeColor=inherit;overflow=hidden;fillColor=none;top=0;left=0;bottom=0;right=0;pointerEvents=1;" vertex="1" parent="iHH6gqKq-wT_3guFl9Im-16">
          <mxGeometry x="100" width="100" height="40" as="geometry">
            <mxRectangle width="100" height="40" as="alternateBounds" />
          </mxGeometry>
        </mxCell>
        <mxCell id="iHH6gqKq-wT_3guFl9Im-19" value="airportdep_code" style="shape=partialRectangle;html=1;whiteSpace=wrap;connectable=0;strokeColor=inherit;overflow=hidden;fillColor=none;top=0;left=0;bottom=0;right=0;pointerEvents=1;" vertex="1" parent="iHH6gqKq-wT_3guFl9Im-16">
          <mxGeometry x="200" width="100" height="40" as="geometry">
            <mxRectangle width="100" height="40" as="alternateBounds" />
          </mxGeometry>
        </mxCell>
        <mxCell id="iHH6gqKq-wT_3guFl9Im-20" value="airportarr_code" style="shape=partialRectangle;html=1;whiteSpace=wrap;connectable=0;strokeColor=inherit;overflow=hidden;fillColor=none;top=0;left=0;bottom=0;right=0;pointerEvents=1;" vertex="1" parent="iHH6gqKq-wT_3guFl9Im-16">
          <mxGeometry x="300" width="100" height="40" as="geometry">
            <mxRectangle width="100" height="40" as="alternateBounds" />
          </mxGeometry>
        </mxCell>
        <mxCell id="iHH6gqKq-wT_3guFl9Im-21" value="sch_deptime" style="shape=partialRectangle;html=1;whiteSpace=wrap;connectable=0;strokeColor=inherit;overflow=hidden;fillColor=none;top=0;left=0;bottom=0;right=0;pointerEvents=1;" vertex="1" parent="iHH6gqKq-wT_3guFl9Im-16">
          <mxGeometry x="400" width="100" height="40" as="geometry">
            <mxRectangle width="100" height="40" as="alternateBounds" />
          </mxGeometry>
        </mxCell>
        <mxCell id="iHH6gqKq-wT_3guFl9Im-22" value="sch_arrtime" style="shape=partialRectangle;html=1;whiteSpace=wrap;connectable=0;strokeColor=inherit;overflow=hidden;fillColor=none;top=0;left=0;bottom=0;right=0;pointerEvents=1;" vertex="1" parent="iHH6gqKq-wT_3guFl9Im-16">
          <mxGeometry x="500" width="100" height="40" as="geometry">
            <mxRectangle width="100" height="40" as="alternateBounds" />
          </mxGeometry>
        </mxCell>
        <mxCell id="iHH6gqKq-wT_3guFl9Im-23" value="flightLeg" style="rounded=0;whiteSpace=wrap;html=1;" vertex="1" parent="1">
          <mxGeometry x="40" y="330" width="100" height="30" as="geometry" />
        </mxCell>
        <mxCell id="iHH6gqKq-wT_3guFl9Im-24" value="" style="shape=table;startSize=0;container=1;collapsible=0;childLayout=tableLayout;" vertex="1" parent="1">
          <mxGeometry x="40" y="480" width="760" height="40" as="geometry" />
        </mxCell>
        <mxCell id="iHH6gqKq-wT_3guFl9Im-25" value="" style="shape=tableRow;horizontal=0;startSize=0;swimlaneHead=0;swimlaneBody=0;strokeColor=inherit;top=0;left=0;bottom=0;right=0;collapsible=0;dropTarget=0;fillColor=none;points=[[0,0.5],[1,0.5]];portConstraint=eastwest;" vertex="1" parent="iHH6gqKq-wT_3guFl9Im-24">
          <mxGeometry width="760" height="40" as="geometry" />
        </mxCell>
        <mxCell id="iHH6gqKq-wT_3guFl9Im-26" value="&lt;u&gt;flightLeg_flightNumber&lt;/u&gt;" style="shape=partialRectangle;html=1;whiteSpace=wrap;connectable=0;strokeColor=inherit;overflow=hidden;fillColor=none;top=0;left=0;bottom=0;right=0;pointerEvents=1;" vertex="1" parent="iHH6gqKq-wT_3guFl9Im-25">
          <mxGeometry width="130" height="40" as="geometry">
            <mxRectangle width="130" height="40" as="alternateBounds" />
          </mxGeometry>
        </mxCell>
        <mxCell id="iHH6gqKq-wT_3guFl9Im-27" value="&lt;u&gt;flightLeg_legNo&lt;/u&gt;" style="shape=partialRectangle;html=1;whiteSpace=wrap;connectable=0;strokeColor=inherit;overflow=hidden;fillColor=none;top=0;left=0;bottom=0;right=0;pointerEvents=1;" vertex="1" parent="iHH6gqKq-wT_3guFl9Im-25">
          <mxGeometry x="130" width="100" height="40" as="geometry">
            <mxRectangle width="100" height="40" as="alternateBounds" />
          </mxGeometry>
        </mxCell>
        <mxCell id="iHH6gqKq-wT_3guFl9Im-28" value="&lt;u&gt;Date&lt;/u&gt;" style="shape=partialRectangle;html=1;whiteSpace=wrap;connectable=0;strokeColor=inherit;overflow=hidden;fillColor=none;top=0;left=0;bottom=0;right=0;pointerEvents=1;" vertex="1" parent="iHH6gqKq-wT_3guFl9Im-25">
          <mxGeometry x="230" width="40" height="40" as="geometry">
            <mxRectangle width="40" height="40" as="alternateBounds" />
          </mxGeometry>
        </mxCell>
        <mxCell id="iHH6gqKq-wT_3guFl9Im-29" value="airplane_Id" style="shape=partialRectangle;html=1;whiteSpace=wrap;connectable=0;strokeColor=inherit;overflow=hidden;fillColor=none;top=0;left=0;bottom=0;right=0;pointerEvents=1;" vertex="1" parent="iHH6gqKq-wT_3guFl9Im-25">
          <mxGeometry x="270" width="70" height="40" as="geometry">
            <mxRectangle width="70" height="40" as="alternateBounds" />
          </mxGeometry>
        </mxCell>
        <mxCell id="iHH6gqKq-wT_3guFl9Im-30" value="noOfAvalableSeats" style="shape=partialRectangle;html=1;whiteSpace=wrap;connectable=0;strokeColor=inherit;overflow=hidden;fillColor=none;top=0;left=0;bottom=0;right=0;pointerEvents=1;" vertex="1" parent="iHH6gqKq-wT_3guFl9Im-25">
          <mxGeometry x="340" width="110" height="40" as="geometry">
            <mxRectangle width="110" height="40" as="alternateBounds" />
          </mxGeometry>
        </mxCell>
        <mxCell id="iHH6gqKq-wT_3guFl9Im-31" value="airportdep_code" style="shape=partialRectangle;html=1;whiteSpace=wrap;connectable=0;strokeColor=inherit;overflow=hidden;fillColor=none;top=0;left=0;bottom=0;right=0;pointerEvents=1;" vertex="1" parent="iHH6gqKq-wT_3guFl9Im-25">
          <mxGeometry x="450" width="100" height="40" as="geometry">
            <mxRectangle width="100" height="40" as="alternateBounds" />
          </mxGeometry>
        </mxCell>
        <mxCell id="iHH6gqKq-wT_3guFl9Im-32" value="airportarr_code" style="shape=partialRectangle;html=1;whiteSpace=wrap;connectable=0;strokeColor=inherit;overflow=hidden;fillColor=none;top=0;left=0;bottom=0;right=0;pointerEvents=1;" vertex="1" parent="iHH6gqKq-wT_3guFl9Im-25">
          <mxGeometry x="550" width="90" height="40" as="geometry">
            <mxRectangle width="90" height="40" as="alternateBounds" />
          </mxGeometry>
        </mxCell>
        <mxCell id="iHH6gqKq-wT_3guFl9Im-33" value="deptime" style="shape=partialRectangle;html=1;whiteSpace=wrap;connectable=0;strokeColor=inherit;overflow=hidden;fillColor=none;top=0;left=0;bottom=0;right=0;pointerEvents=1;" vertex="1" parent="iHH6gqKq-wT_3guFl9Im-25">
          <mxGeometry x="640" width="60" height="40" as="geometry">
            <mxRectangle width="60" height="40" as="alternateBounds" />
          </mxGeometry>
        </mxCell>
        <mxCell id="iHH6gqKq-wT_3guFl9Im-34" value="arrtime" style="shape=partialRectangle;html=1;whiteSpace=wrap;connectable=0;strokeColor=inherit;overflow=hidden;fillColor=none;top=0;left=0;bottom=0;right=0;pointerEvents=1;" vertex="1" parent="iHH6gqKq-wT_3guFl9Im-25">
          <mxGeometry x="700" width="60" height="40" as="geometry">
            <mxRectangle width="60" height="40" as="alternateBounds" />
          </mxGeometry>
        </mxCell>
        <mxCell id="iHH6gqKq-wT_3guFl9Im-35" value="legInstance" style="rounded=0;whiteSpace=wrap;html=1;" vertex="1" parent="1">
          <mxGeometry x="40" y="450" width="130" height="30" as="geometry" />
        </mxCell>
        <mxCell id="iHH6gqKq-wT_3guFl9Im-68" style="edgeStyle=orthogonalEdgeStyle;rounded=0;orthogonalLoop=1;jettySize=auto;html=1;exitX=0.126;exitY=1.075;exitDx=0;exitDy=0;entryX=0.087;entryY=1.025;entryDx=0;entryDy=0;entryPerimeter=0;exitPerimeter=0;" edge="1" parent="1" source="iHH6gqKq-wT_3guFl9Im-36" target="iHH6gqKq-wT_3guFl9Im-24">
          <mxGeometry relative="1" as="geometry">
            <Array as="points">
              <mxPoint x="126" y="700" />
              <mxPoint x="30" y="700" />
              <mxPoint x="30" y="590" />
              <mxPoint x="106" y="590" />
            </Array>
          </mxGeometry>
        </mxCell>
        <mxCell id="iHH6gqKq-wT_3guFl9Im-69" value="" style="shape=table;startSize=0;container=1;collapsible=0;childLayout=tableLayout;" vertex="1" parent="1">
          <mxGeometry x="40" y="840" width="320" height="40" as="geometry" />
        </mxCell>
        <mxCell id="iHH6gqKq-wT_3guFl9Im-70" value="" style="shape=tableRow;horizontal=0;startSize=0;swimlaneHead=0;swimlaneBody=0;strokeColor=inherit;top=0;left=0;bottom=0;right=0;collapsible=0;dropTarget=0;fillColor=none;points=[[0,0.5],[1,0.5]];portConstraint=eastwest;" vertex="1" parent="iHH6gqKq-wT_3guFl9Im-69">
          <mxGeometry width="320" height="40" as="geometry" />
        </mxCell>
        <mxCell id="iHH6gqKq-wT_3guFl9Im-71" value="&lt;u&gt;airplane_Id&lt;/u&gt;" style="shape=partialRectangle;html=1;whiteSpace=wrap;connectable=0;strokeColor=inherit;overflow=hidden;fillColor=none;top=0;left=0;bottom=0;right=0;pointerEvents=1;" vertex="1" parent="iHH6gqKq-wT_3guFl9Im-70">
          <mxGeometry width="80" height="40" as="geometry">
            <mxRectangle width="80" height="40" as="alternateBounds" />
          </mxGeometry>
        </mxCell>
        <mxCell id="iHH6gqKq-wT_3guFl9Im-72" value="totalSeats" style="shape=partialRectangle;html=1;whiteSpace=wrap;connectable=0;strokeColor=inherit;overflow=hidden;fillColor=none;top=0;left=0;bottom=0;right=0;pointerEvents=1;" vertex="1" parent="iHH6gqKq-wT_3guFl9Im-70">
          <mxGeometry x="80" width="74" height="40" as="geometry">
            <mxRectangle width="74" height="40" as="alternateBounds" />
          </mxGeometry>
        </mxCell>
        <mxCell id="iHH6gqKq-wT_3guFl9Im-73" value="airplaneType_Typename" style="shape=partialRectangle;html=1;whiteSpace=wrap;connectable=0;strokeColor=inherit;overflow=hidden;fillColor=none;top=0;left=0;bottom=0;right=0;pointerEvents=1;" vertex="1" parent="iHH6gqKq-wT_3guFl9Im-70">
          <mxGeometry x="154" width="166" height="40" as="geometry">
            <mxRectangle width="166" height="40" as="alternateBounds" />
          </mxGeometry>
        </mxCell>
        <mxCell id="iHH6gqKq-wT_3guFl9Im-36" value="" style="shape=table;startSize=0;container=1;collapsible=0;childLayout=tableLayout;" vertex="1" parent="1">
          <mxGeometry x="40" y="640" width="680" height="40" as="geometry" />
        </mxCell>
        <mxCell id="iHH6gqKq-wT_3guFl9Im-37" value="" style="shape=tableRow;horizontal=0;startSize=0;swimlaneHead=0;swimlaneBody=0;strokeColor=inherit;top=0;left=0;bottom=0;right=0;collapsible=0;dropTarget=0;fillColor=none;points=[[0,0.5],[1,0.5]];portConstraint=eastwest;" vertex="1" parent="iHH6gqKq-wT_3guFl9Im-36">
          <mxGeometry width="680" height="40" as="geometry" />
        </mxCell>
        <mxCell id="iHH6gqKq-wT_3guFl9Im-38" value="&lt;u&gt;legInstance_flightLeg_flightNumber&lt;/u&gt;" style="shape=partialRectangle;html=1;whiteSpace=wrap;connectable=0;strokeColor=inherit;overflow=hidden;fillColor=none;top=0;left=0;bottom=0;right=0;pointerEvents=1;" vertex="1" parent="iHH6gqKq-wT_3guFl9Im-37">
          <mxGeometry width="200" height="40" as="geometry">
            <mxRectangle width="200" height="40" as="alternateBounds" />
          </mxGeometry>
        </mxCell>
        <mxCell id="iHH6gqKq-wT_3guFl9Im-39" value="&lt;u&gt;legInstance_flightLeg_LegNo&lt;/u&gt;" style="shape=partialRectangle;html=1;whiteSpace=wrap;connectable=0;strokeColor=inherit;overflow=hidden;fillColor=none;top=0;left=0;bottom=0;right=0;pointerEvents=1;" vertex="1" parent="iHH6gqKq-wT_3guFl9Im-37">
          <mxGeometry x="200" width="170" height="40" as="geometry">
            <mxRectangle width="170" height="40" as="alternateBounds" />
          </mxGeometry>
        </mxCell>
        <mxCell id="iHH6gqKq-wT_3guFl9Im-40" value="&lt;u&gt;legInstance_Date&lt;/u&gt;" style="shape=partialRectangle;html=1;whiteSpace=wrap;connectable=0;strokeColor=inherit;overflow=hidden;fillColor=none;top=0;left=0;bottom=0;right=0;pointerEvents=1;" vertex="1" parent="iHH6gqKq-wT_3guFl9Im-37">
          <mxGeometry x="370" width="110" height="40" as="geometry">
            <mxRectangle width="110" height="40" as="alternateBounds" />
          </mxGeometry>
        </mxCell>
        <mxCell id="iHH6gqKq-wT_3guFl9Im-41" value="&lt;u&gt;seatNo&lt;/u&gt;" style="shape=partialRectangle;html=1;whiteSpace=wrap;connectable=0;strokeColor=inherit;overflow=hidden;fillColor=none;top=0;left=0;bottom=0;right=0;pointerEvents=1;" vertex="1" parent="iHH6gqKq-wT_3guFl9Im-37">
          <mxGeometry x="480" width="51" height="40" as="geometry">
            <mxRectangle width="51" height="40" as="alternateBounds" />
          </mxGeometry>
        </mxCell>
        <mxCell id="iHH6gqKq-wT_3guFl9Im-42" value="costumerName" style="shape=partialRectangle;html=1;whiteSpace=wrap;connectable=0;strokeColor=inherit;overflow=hidden;fillColor=none;top=0;left=0;bottom=0;right=0;pointerEvents=1;" vertex="1" parent="iHH6gqKq-wT_3guFl9Im-37">
          <mxGeometry x="531" width="95" height="40" as="geometry">
            <mxRectangle width="95" height="40" as="alternateBounds" />
          </mxGeometry>
        </mxCell>
        <mxCell id="iHH6gqKq-wT_3guFl9Im-43" value="Cphone" style="shape=partialRectangle;html=1;whiteSpace=wrap;connectable=0;strokeColor=inherit;overflow=hidden;fillColor=none;top=0;left=0;bottom=0;right=0;pointerEvents=1;" vertex="1" parent="iHH6gqKq-wT_3guFl9Im-37">
          <mxGeometry x="626" width="54" height="40" as="geometry">
            <mxRectangle width="54" height="40" as="alternateBounds" />
          </mxGeometry>
        </mxCell>
        <mxCell id="iHH6gqKq-wT_3guFl9Im-44" value="seat" style="rounded=0;whiteSpace=wrap;html=1;" vertex="1" parent="1">
          <mxGeometry x="40" y="610" width="200" height="30" as="geometry" />
        </mxCell>
        <mxCell id="iHH6gqKq-wT_3guFl9Im-75" value="airplane" style="rounded=0;whiteSpace=wrap;html=1;" vertex="1" parent="1">
          <mxGeometry x="40" y="810" width="80" height="30" as="geometry" />
        </mxCell>
        <mxCell id="iHH6gqKq-wT_3guFl9Im-76" value="" style="shape=table;startSize=0;container=1;collapsible=0;childLayout=tableLayout;" vertex="1" parent="1">
          <mxGeometry x="440" y="840" width="240" height="40" as="geometry" />
        </mxCell>
        <mxCell id="iHH6gqKq-wT_3guFl9Im-77" value="" style="shape=tableRow;horizontal=0;startSize=0;swimlaneHead=0;swimlaneBody=0;strokeColor=inherit;top=0;left=0;bottom=0;right=0;collapsible=0;dropTarget=0;fillColor=none;points=[[0,0.5],[1,0.5]];portConstraint=eastwest;" vertex="1" parent="iHH6gqKq-wT_3guFl9Im-76">
          <mxGeometry width="240" height="40" as="geometry" />
        </mxCell>
        <mxCell id="iHH6gqKq-wT_3guFl9Im-78" value="&lt;u&gt;Typename&lt;/u&gt;" style="shape=partialRectangle;html=1;whiteSpace=wrap;connectable=0;strokeColor=inherit;overflow=hidden;fillColor=none;top=0;left=0;bottom=0;right=0;pointerEvents=1;" vertex="1" parent="iHH6gqKq-wT_3guFl9Im-77">
          <mxGeometry width="80" height="40" as="geometry">
            <mxRectangle width="80" height="40" as="alternateBounds" />
          </mxGeometry>
        </mxCell>
        <mxCell id="iHH6gqKq-wT_3guFl9Im-79" value="Maxseats" style="shape=partialRectangle;html=1;whiteSpace=wrap;connectable=0;strokeColor=inherit;overflow=hidden;fillColor=none;top=0;left=0;bottom=0;right=0;pointerEvents=1;" vertex="1" parent="iHH6gqKq-wT_3guFl9Im-77">
          <mxGeometry x="80" width="80" height="40" as="geometry">
            <mxRectangle width="80" height="40" as="alternateBounds" />
          </mxGeometry>
        </mxCell>
        <mxCell id="iHH6gqKq-wT_3guFl9Im-80" value="Company" style="shape=partialRectangle;html=1;whiteSpace=wrap;connectable=0;strokeColor=inherit;overflow=hidden;fillColor=none;top=0;left=0;bottom=0;right=0;pointerEvents=1;" vertex="1" parent="iHH6gqKq-wT_3guFl9Im-77">
          <mxGeometry x="160" width="80" height="40" as="geometry">
            <mxRectangle width="80" height="40" as="alternateBounds" />
          </mxGeometry>
        </mxCell>
        <mxCell id="iHH6gqKq-wT_3guFl9Im-81" value="airplaneType" style="rounded=0;whiteSpace=wrap;html=1;" vertex="1" parent="1">
          <mxGeometry x="440" y="810" width="80" height="30" as="geometry" />
        </mxCell>
        <mxCell id="iHH6gqKq-wT_3guFl9Im-82" value="" style="shape=table;startSize=0;container=1;collapsible=0;childLayout=tableLayout;" vertex="1" parent="1">
          <mxGeometry x="40" y="1000" width="280" height="40" as="geometry" />
        </mxCell>
        <mxCell id="iHH6gqKq-wT_3guFl9Im-83" value="" style="shape=tableRow;horizontal=0;startSize=0;swimlaneHead=0;swimlaneBody=0;strokeColor=inherit;top=0;left=0;bottom=0;right=0;collapsible=0;dropTarget=0;fillColor=none;points=[[0,0.5],[1,0.5]];portConstraint=eastwest;" vertex="1" parent="iHH6gqKq-wT_3guFl9Im-82">
          <mxGeometry width="280" height="40" as="geometry" />
        </mxCell>
        <mxCell id="iHH6gqKq-wT_3guFl9Im-84" value="airport_code" style="shape=partialRectangle;html=1;whiteSpace=wrap;connectable=0;strokeColor=inherit;overflow=hidden;fillColor=none;top=0;left=0;bottom=0;right=0;pointerEvents=1;" vertex="1" parent="iHH6gqKq-wT_3guFl9Im-83">
          <mxGeometry width="100" height="40" as="geometry">
            <mxRectangle width="100" height="40" as="alternateBounds" />
          </mxGeometry>
        </mxCell>
        <mxCell id="iHH6gqKq-wT_3guFl9Im-85" value="airplaneType_Typename" style="shape=partialRectangle;html=1;whiteSpace=wrap;connectable=0;strokeColor=inherit;overflow=hidden;fillColor=none;top=0;left=0;bottom=0;right=0;pointerEvents=1;" vertex="1" parent="iHH6gqKq-wT_3guFl9Im-83">
          <mxGeometry x="100" width="180" height="40" as="geometry">
            <mxRectangle width="180" height="40" as="alternateBounds" />
          </mxGeometry>
        </mxCell>
        <mxCell id="iHH6gqKq-wT_3guFl9Im-86" value="canLand" style="rounded=0;whiteSpace=wrap;html=1;" vertex="1" parent="1">
          <mxGeometry x="40" y="970" width="100" height="30" as="geometry" />
        </mxCell>
        <mxCell id="iHH6gqKq-wT_3guFl9Im-87" value="" style="shape=table;startSize=0;container=1;collapsible=0;childLayout=tableLayout;" vertex="1" parent="1">
          <mxGeometry x="440" y="1000" width="320" height="40" as="geometry" />
        </mxCell>
        <mxCell id="iHH6gqKq-wT_3guFl9Im-88" value="" style="shape=tableRow;horizontal=0;startSize=0;swimlaneHead=0;swimlaneBody=0;strokeColor=inherit;top=0;left=0;bottom=0;right=0;collapsible=0;dropTarget=0;fillColor=none;points=[[0,0.5],[1,0.5]];portConstraint=eastwest;" vertex="1" parent="iHH6gqKq-wT_3guFl9Im-87">
          <mxGeometry width="320" height="40" as="geometry" />
        </mxCell>
        <mxCell id="iHH6gqKq-wT_3guFl9Im-89" value="&lt;u&gt;flight_Number&lt;/u&gt;" style="shape=partialRectangle;html=1;whiteSpace=wrap;connectable=0;strokeColor=inherit;overflow=hidden;fillColor=none;top=0;left=0;bottom=0;right=0;pointerEvents=1;" vertex="1" parent="iHH6gqKq-wT_3guFl9Im-88">
          <mxGeometry width="90" height="40" as="geometry">
            <mxRectangle width="90" height="40" as="alternateBounds" />
          </mxGeometry>
        </mxCell>
        <mxCell id="iHH6gqKq-wT_3guFl9Im-90" value="&lt;u&gt;code&lt;/u&gt;" style="shape=partialRectangle;html=1;whiteSpace=wrap;connectable=0;strokeColor=inherit;overflow=hidden;fillColor=none;top=0;left=0;bottom=0;right=0;pointerEvents=1;" vertex="1" parent="iHH6gqKq-wT_3guFl9Im-88">
          <mxGeometry x="90" width="70" height="40" as="geometry">
            <mxRectangle width="70" height="40" as="alternateBounds" />
          </mxGeometry>
        </mxCell>
        <mxCell id="iHH6gqKq-wT_3guFl9Im-91" value="amount" style="shape=partialRectangle;html=1;whiteSpace=wrap;connectable=0;strokeColor=inherit;overflow=hidden;fillColor=none;top=0;left=0;bottom=0;right=0;pointerEvents=1;" vertex="1" parent="iHH6gqKq-wT_3guFl9Im-88">
          <mxGeometry x="160" width="70" height="40" as="geometry">
            <mxRectangle width="70" height="40" as="alternateBounds" />
          </mxGeometry>
        </mxCell>
        <mxCell id="iHH6gqKq-wT_3guFl9Im-92" value="restrictions" style="shape=partialRectangle;html=1;whiteSpace=wrap;connectable=0;strokeColor=inherit;overflow=hidden;fillColor=none;top=0;left=0;bottom=0;right=0;pointerEvents=1;" vertex="1" parent="iHH6gqKq-wT_3guFl9Im-88">
          <mxGeometry x="230" width="90" height="40" as="geometry">
            <mxRectangle width="90" height="40" as="alternateBounds" />
          </mxGeometry>
        </mxCell>
        <mxCell id="iHH6gqKq-wT_3guFl9Im-93" value="fare" style="rounded=0;whiteSpace=wrap;html=1;" vertex="1" parent="1">
          <mxGeometry x="440" y="970" width="90" height="30" as="geometry" />
        </mxCell>
        <mxCell id="iHH6gqKq-wT_3guFl9Im-94" style="edgeStyle=orthogonalEdgeStyle;rounded=0;orthogonalLoop=1;jettySize=auto;html=1;exitX=0.411;exitY=1.025;exitDx=0;exitDy=0;entryX=0.122;entryY=1;entryDx=0;entryDy=0;entryPerimeter=0;exitPerimeter=0;" edge="1" parent="1" source="iHH6gqKq-wT_3guFl9Im-25" target="iHH6gqKq-wT_3guFl9Im-70">
          <mxGeometry relative="1" as="geometry">
            <Array as="points">
              <mxPoint x="352" y="550" />
              <mxPoint x="790" y="550" />
              <mxPoint x="790" y="770" />
              <mxPoint x="400" y="770" />
              <mxPoint x="400" y="910" />
              <mxPoint x="79" y="910" />
            </Array>
          </mxGeometry>
        </mxCell>
        <mxCell id="iHH6gqKq-wT_3guFl9Im-101" style="edgeStyle=orthogonalEdgeStyle;rounded=0;orthogonalLoop=1;jettySize=auto;html=1;exitX=0.25;exitY=1;exitDx=0;exitDy=0;entryX=0.171;entryY=1.025;entryDx=0;entryDy=0;entryPerimeter=0;" edge="1" parent="1" source="iHH6gqKq-wT_3guFl9Im-82" target="iHH6gqKq-wT_3guFl9Im-77">
          <mxGeometry relative="1" as="geometry">
            <Array as="points">
              <mxPoint x="110" y="1060" />
              <mxPoint x="390" y="1060" />
              <mxPoint x="390" y="940" />
              <mxPoint x="481" y="940" />
            </Array>
          </mxGeometry>
        </mxCell>
        <mxCell id="iHH6gqKq-wT_3guFl9Im-102" style="edgeStyle=orthogonalEdgeStyle;rounded=0;orthogonalLoop=1;jettySize=auto;html=1;exitX=0.125;exitY=1;exitDx=0;exitDy=0;entryX=0.155;entryY=1.025;entryDx=0;entryDy=0;entryPerimeter=0;exitPerimeter=0;" edge="1" parent="1" source="iHH6gqKq-wT_3guFl9Im-87" target="iHH6gqKq-wT_3guFl9Im-9">
          <mxGeometry relative="1" as="geometry">
            <Array as="points">
              <mxPoint x="480" y="1060" />
              <mxPoint x="810" y="1060" />
              <mxPoint x="810" y="230" />
              <mxPoint x="551" y="230" />
            </Array>
          </mxGeometry>
        </mxCell>
        <mxCell id="iHH6gqKq-wT_3guFl9Im-105" style="edgeStyle=orthogonalEdgeStyle;rounded=0;orthogonalLoop=1;jettySize=auto;html=1;exitX=0.635;exitY=-0.025;exitDx=0;exitDy=0;entryX=0.328;entryY=1.05;entryDx=0;entryDy=0;entryPerimeter=0;exitPerimeter=0;" edge="1" parent="1" source="iHH6gqKq-wT_3guFl9Im-37" target="iHH6gqKq-wT_3guFl9Im-24">
          <mxGeometry relative="1" as="geometry">
            <Array as="points">
              <mxPoint x="472" y="570" />
              <mxPoint x="289" y="570" />
            </Array>
          </mxGeometry>
        </mxCell>
        <mxCell id="iHH6gqKq-wT_3guFl9Im-106" style="edgeStyle=orthogonalEdgeStyle;rounded=0;orthogonalLoop=1;jettySize=auto;html=1;exitX=0.428;exitY=0;exitDx=0;exitDy=0;entryX=0.25;entryY=1;entryDx=0;entryDy=0;exitPerimeter=0;" edge="1" parent="1" source="iHH6gqKq-wT_3guFl9Im-37" target="iHH6gqKq-wT_3guFl9Im-24">
          <mxGeometry relative="1" as="geometry">
            <Array as="points">
              <mxPoint x="331" y="590" />
              <mxPoint x="230" y="590" />
            </Array>
          </mxGeometry>
        </mxCell>
        <mxCell id="iHH6gqKq-wT_3guFl9Im-107" style="edgeStyle=orthogonalEdgeStyle;rounded=0;orthogonalLoop=1;jettySize=auto;html=1;exitX=0.247;exitY=-0.025;exitDx=0;exitDy=0;entryX=0.25;entryY=1;entryDx=0;entryDy=0;exitPerimeter=0;" edge="1" parent="1" source="iHH6gqKq-wT_3guFl9Im-25" target="iHH6gqKq-wT_3guFl9Im-15">
          <mxGeometry relative="1" as="geometry" />
        </mxCell>
        <mxCell id="iHH6gqKq-wT_3guFl9Im-108" style="edgeStyle=orthogonalEdgeStyle;rounded=0;orthogonalLoop=1;jettySize=auto;html=1;exitX=0.045;exitY=0.975;exitDx=0;exitDy=0;entryX=0.078;entryY=1.025;entryDx=0;entryDy=0;entryPerimeter=0;exitPerimeter=0;" edge="1" parent="1" source="iHH6gqKq-wT_3guFl9Im-25" target="iHH6gqKq-wT_3guFl9Im-16">
          <mxGeometry relative="1" as="geometry">
            <Array as="points">
              <mxPoint x="74" y="540" />
              <mxPoint x="20" y="540" />
              <mxPoint x="20" y="430" />
              <mxPoint x="87" y="430" />
            </Array>
          </mxGeometry>
        </mxCell>
        <mxCell id="iHH6gqKq-wT_3guFl9Im-111" style="edgeStyle=orthogonalEdgeStyle;rounded=0;orthogonalLoop=1;jettySize=auto;html=1;exitX=0.43;exitY=0;exitDx=0;exitDy=0;exitPerimeter=0;" edge="1" parent="1" source="iHH6gqKq-wT_3guFl9Im-16">
          <mxGeometry relative="1" as="geometry">
            <mxPoint x="130" y="200" as="targetPoint" />
            <Array as="points">
              <mxPoint x="298" y="310" />
              <mxPoint x="130" y="310" />
              <mxPoint x="130" y="205" />
            </Array>
          </mxGeometry>
        </mxCell>
        <mxCell id="iHH6gqKq-wT_3guFl9Im-112" style="edgeStyle=orthogonalEdgeStyle;rounded=0;orthogonalLoop=1;jettySize=auto;html=1;exitX=0.59;exitY=0;exitDx=0;exitDy=0;exitPerimeter=0;" edge="1" parent="1" source="iHH6gqKq-wT_3guFl9Im-16">
          <mxGeometry relative="1" as="geometry">
            <mxPoint x="141" y="200" as="targetPoint" />
          </mxGeometry>
        </mxCell>
        <mxCell id="iHH6gqKq-wT_3guFl9Im-113" style="edgeStyle=orthogonalEdgeStyle;rounded=0;orthogonalLoop=1;jettySize=auto;html=1;exitX=0.662;exitY=0;exitDx=0;exitDy=0;entryX=0.154;entryY=1.025;entryDx=0;entryDy=0;entryPerimeter=0;exitPerimeter=0;" edge="1" parent="1" source="iHH6gqKq-wT_3guFl9Im-25" target="iHH6gqKq-wT_3guFl9Im-2">
          <mxGeometry relative="1" as="geometry">
            <Array as="points">
              <mxPoint x="543" y="430" />
              <mxPoint x="670" y="430" />
              <mxPoint x="670" y="320" />
              <mxPoint x="450" y="320" />
              <mxPoint x="450" y="260" />
              <mxPoint x="157" y="260" />
            </Array>
          </mxGeometry>
        </mxCell>
        <mxCell id="iHH6gqKq-wT_3guFl9Im-114" style="edgeStyle=orthogonalEdgeStyle;rounded=0;orthogonalLoop=1;jettySize=auto;html=1;exitX=0.789;exitY=-0.025;exitDx=0;exitDy=0;entryX=0.2;entryY=1;entryDx=0;entryDy=0;entryPerimeter=0;exitPerimeter=0;" edge="1" parent="1" source="iHH6gqKq-wT_3guFl9Im-25" target="iHH6gqKq-wT_3guFl9Im-2">
          <mxGeometry relative="1" as="geometry">
            <Array as="points">
              <mxPoint x="640" y="460" />
              <mxPoint x="720" y="460" />
              <mxPoint x="720" y="290" />
              <mxPoint x="500" y="290" />
              <mxPoint x="500" y="230" />
              <mxPoint x="168" y="230" />
            </Array>
          </mxGeometry>
        </mxCell>
      </root>
    </mxGraphModel>
  </diagram>
</mxfile>
